<?xml version="1.0" encoding="UTF-8"?>
<svg width="22px" height="22px" viewBox="0 0 22 22" version="1.1" xmlns="http://www.w3.org/2000/svg" xmlns:xlink="http://www.w3.org/1999/xlink">
    <title>1669D7AE-9D3B-46D2-AAE1-5897E2263CEE</title>
    <g id="Multiple-Treatment-Plans" stroke="none" stroke-width="1" fill="none" fill-rule="evenodd">
        <g transform="translate(-12.000000, -177.000000)" fill="#585858" fill-rule="nonzero" id="Group-/-Left-Side-Bar">
            <g transform="translate(0.000000, 75.000000)">
                <g id="Notes" transform="translate(0.000000, 90.000000)">
                    <g id="notes" transform="translate(12.000000, 12.000000)">
                        <path d="M19.9122901,8.55252342 C19.6155084,8.55252342 19.38,8.79425783 19.38,9.09252342 L19.38,18.8871328 C19.3789505,19.7815078 18.6529618,20.5062891 17.7630364,20.5071328 L2.68656716,20.5071328 C1.79664179,20.5062891 1.07567629,19.7815078 1.07462687,18.8871328 L1.07462687,4.81528125 C1.07567629,3.92111717 1.79664179,3.19633592 2.68656716,3.19528125 L11.4573227,3.19528125 C11.7541045,3.19528125 11.9946362,2.9882656 11.9946362,2.69 C11.9946362,2.39194533 11.7541045,2.2 11.4573227,2.2 L2.68656716,2.2 C1.20349816,2.2016875 0.101679104,3.32479685 0.1,4.81528125 L0.1,18.8873438 C0.101679104,20.3778282 1.20349816,21.4983125 2.68656716,21.5 L17.7630364,21.5 C19.2461054,21.4983125 20.3983209,20.3778282 20.4,18.8873438 L20.4,9.09252342 C20.4,8.79425783 20.2090718,8.55252342 19.9122901,8.55252342 Z" id="Path"></path>
                        <path d="M20.236777,0.725835924 C19.2924907,-0.223171848 17.7615672,-0.223171848 16.8172808,0.725835924 L7.23127331,10.3597734 C7.16557836,10.4257968 7.11814363,10.5076407 7.09337687,10.5975 L5.83278921,15.1712578 C5.78094684,15.3587812 5.8336287,15.5595937 5.97047577,15.6973359 C6.10753266,15.8348672 6.3073461,15.8878125 6.49393657,15.8359218 L11.0449394,14.5688203 C11.1343517,14.5439297 11.2157882,14.4962578 11.2814832,14.4302343 L20.8672808,4.79608592 C21.8100979,3.84644533 21.8100979,2.30913283 20.8672808,1.35949217 L20.236777,0.725835924 Z M8.40202893,10.7107734 L16.2474347,2.82592967 L18.7776352,5.36878125 L10.9320196,13.253625 L8.40202893,10.7107734 Z M7.89661848,11.7300234 L9.9180504,13.7617734 L7.12192164,14.5403437 L7.89661848,11.7300234 Z M20.107486,4.03249217 L19.53764,4.6051875 L17.0072295,2.062125 L17.5772854,1.48942967 C18.1017957,0.962296848 18.9522621,0.962296848 19.4767724,1.48942967 L20.107486,2.12308592 C20.6311567,2.65085158 20.6311567,3.5049375 20.107486,4.03249217 L20.107486,4.03249217 Z" id="Shape"></path>
                    </g>
                </g>
            </g>
        </g>
    </g>
</svg>