<?xml version="1.0" encoding="UTF-8"?>
<svg width="25px" height="25px" viewBox="0 0 25 25" version="1.1" xmlns="http://www.w3.org/2000/svg" xmlns:xlink="http://www.w3.org/1999/xlink">
    <title>F2308419-C60E-407F-8E4C-46F5FAD5ED6D</title>
    <g id="Multiple-Treatment-Plans" stroke="none" stroke-width="1" fill="none" fill-rule="evenodd">
        <g transform="translate(-10.000000, -130.000000)" id="Group-/-Left-Side-Bar" stroke="#585858">
            <g transform="translate(0.000000, 75.000000)">
                <g id="Photos" transform="translate(0.000000, 45.000000)">
                    <g id="picture" transform="translate(11.000000, 11.000000)">
                        <path d="M5.45740526,22.3098211 L19.3122556,22.3098211 C20.9525413,22.3098211 22.2822556,20.9801068 22.2822556,19.3398211 L22.2822556,5.46992689 L22.2822556,5.46992689" id="Path-4" stroke-width="0.9" stroke-linecap="round"></path>
                        <path d="M0.5,17.8693878 C0.5,18.754953 1.2215218,19.4755102 2.10612245,19.4755102 L17.8693878,19.4755102 C18.754953,19.4755102 19.4755102,18.7539884 19.4755102,17.8693878 L19.4755102,2.10612245 C19.4755102,1.2205572 18.7539884,0.5 17.8693878,0.5 L2.10612245,0.5 C1.2205572,0.5 0.5,1.2215218 0.5,2.10612245 C0.5,2.59872449 0.5,2.59872449 0.5,4.56913265 C0.5,7.03214286 0.5,7.03214286 0.5,9.9877551 C0.5,12.9433673 0.5,12.9433673 0.5,15.4063776 C0.5,17.3767857 0.5,17.3767857 0.5,17.8693878 Z" id="Shape"></path>
                        <path d="M13.916087,12.5778 L11.8393478,11.6226 C11.6434783,11.5324 11.5217391,11.3512 11.5217391,11.1496 L11.5217391,10.4734 C11.5715217,10.4174 11.623913,10.3536 11.6780435,10.2832 C11.9473913,9.9332 12.1632609,9.5436 12.3202174,9.1234 C12.6269565,8.994 12.826087,8.715 12.826087,8.4 L12.826087,7.6 C12.826087,7.4074 12.7478261,7.2208 12.6086957,7.075 L12.6086957,6.0112 C12.6208696,5.9012 12.6686957,5.2464 12.153913,4.7062 C11.7073913,4.2376 10.9828261,4 10,4 C9.01717391,4 8.2926087,4.2376 7.84608696,4.706 C7.33130435,5.2462 7.37913043,5.9012 7.39130435,6.0112 L7.39130435,7.075 C7.25217391,7.2208 7.17391304,7.4074 7.17391304,7.6 L7.17391304,8.4 C7.17391304,8.6434 7.29413043,8.8704 7.49934783,9.0218 C7.69847826,9.7472 8.11521739,10.2938 8.26086957,10.4692 L8.26086957,11.131 C8.26086957,11.3246 8.14608696,11.5022 7.96152174,11.595 L6.02217391,12.5682 C5.39152174,12.8848 5,13.4916 5,14.1524 L5,14.8 C5,15.7492 8.27065217,16 10,16 C11.7293478,16 15,15.7492 15,14.8 L15,14.1914 C15,13.5038 14.5845652,12.8854 13.916087,12.5778 Z M14.5652174,14.8 C14.5652174,15.0714 12.953913,15.6 10,15.6 C7.04608696,15.6 5.43478261,15.0714 5.43478261,14.8 L5.43478261,14.1524 C5.43478261,13.6382 5.73956522,13.1656 6.23021739,12.9196 L8.16956522,11.9464 C8.49413043,11.7834 8.69565217,11.4708 8.69565217,11.131 L8.69565217,10.3272 L8.645,10.2716 C8.63978261,10.2658 8.10695652,9.6728 7.90369565,8.8586 L7.88391304,8.7794 L7.80978261,8.7354 C7.68391304,8.6606 7.60869565,8.5352 7.60869565,8.4 L7.60869565,7.6 C7.60869565,7.4878 7.66043478,7.3832 7.75434783,7.305 L7.82608696,7.2456 L7.82608696,6 L7.82413043,5.9738 C7.82347826,5.9684 7.74956522,5.414 8.17304348,4.9696 C8.53326087,4.5916 9.14804348,4.4 10,4.4 C10.848913,4.4 11.4623913,4.5902 11.8230435,4.9656 C12.2463043,5.4058 12.1763043,5.969 12.1758696,5.9738 L12.173913,7.2456 L12.2456522,7.3052 C12.3395652,7.3832 12.3913043,7.4878 12.3913043,7.6 L12.3913043,8.4 C12.3913043,8.5746 12.2669565,8.7274 12.0821739,8.7798 L11.973913,8.8104 L11.9391304,8.9094 C11.7936957,9.3256 11.5865217,9.71 11.3230435,10.052 C11.2584783,10.1362 11.1956522,10.2108 11.141087,10.2678 L11.0869565,10.3246 L11.0869565,11.1496 C11.0869565,11.5036 11.3006522,11.8218 11.6447826,11.9802 L13.7215217,12.9354 C14.2419565,13.1748 14.5652174,13.656 14.5652174,14.1914 L14.5652174,14.8 Z" id="Shape" stroke-width="0.5" fill="#585858" fill-rule="nonzero"></path>
                    </g>
                </g>
            </g>
        </g>
    </g>
</svg>