<?xml version="1.0" encoding="UTF-8"?>
<svg width="21px" height="21px" viewBox="0 0 21 21" version="1.1" xmlns="http://www.w3.org/2000/svg" xmlns:xlink="http://www.w3.org/1999/xlink">
    <title>600ADF2E-AA2D-45ED-8459-9C31D42BC078</title>
    <g id="Multiple-Treatment-Plans" stroke="none" stroke-width="1" fill="none" fill-rule="evenodd">
        <g transform="translate(-12.000000, -87.000000)" fill="#585858" fill-rule="nonzero" id="Group-/-Left-Side-Bar">
            <g transform="translate(0.000000, 75.000000)">
                <g id="Proscription">
                    <g id="Prescription" transform="translate(12.000000, 12.000000)">
                        <path d="M19.4871094,0 C18.6398232,0 2.42357023,0 1.21289062,0 C0.544063558,0 0,0.544063558 0,1.21289062 L0,19.4871094 C0,20.1559364 0.544063558,20.7 1.21289062,20.7 L19.4871094,20.7 C20.1559364,20.7 20.7,20.1559364 20.7,19.4871094 L20.7,1.21289062 C20.7,0.544063558 20.1559364,0 19.4871094,0 Z M17.2230469,19.8914062 L11.8299477,19.8914062 L15.2581009,16.1203903 C15.3231674,16.0490067 15.3632812,15.9507751 15.3632812,15.8484375 L15.3632812,0.80859375 L17.2230469,0.80859375 L17.2230469,19.8914062 Z M11.3203125,19.2499008 L11.3203125,16.2527344 L14.0450523,16.2527344 L11.3203125,19.2499008 Z M0.80859375,19.4871094 L0.80859375,1.21289062 C0.80859375,0.98989563 0.98989563,0.80859375 1.21289062,0.80859375 L14.5546875,0.80859375 L14.5546875,15.4441406 L10.9160156,15.4441406 C10.6927048,15.4441406 10.5117188,15.6251266 10.5117188,15.8484375 L10.5117188,19.8914062 C10.1532211,19.8914062 1.72915877,19.8914062 1.21289062,19.8914062 C0.98989563,19.8914062 0.80859375,19.7101044 0.80859375,19.4871094 Z M19.8914063,19.4871094 C19.8914063,19.7101044 19.7101044,19.8914062 19.4871094,19.8914062 L18.0316406,19.8914062 L18.0316406,0.80859375 L19.4871094,0.80859375 C19.7101044,0.80859375 19.8914063,0.98989563 19.8914063,1.21289062 L19.8914063,19.4871094 Z" id="Shape"></path>
                        <path d="M10.4730469,10.2 L4.00429688,10.2 C3.780986,10.2 3.6,10.380986 3.6,10.6042969 C3.6,10.8276077 3.780986,11.0085938 4.00429688,11.0085938 L10.4730469,11.0085938 C10.6963577,11.0085938 10.8773438,10.8276077 10.8773438,10.6042969 C10.8773438,10.380986 10.6963577,10.2 10.4730469,10.2 Z" id="Path"></path>
                        <path d="M10.4730469,12 L4.00429688,12 C3.780986,12 3.6,12.180986 3.6,12.4042969 C3.6,12.6276077 3.780986,12.8085938 4.00429688,12.8085938 L10.4730469,12.8085938 C10.6963577,12.8085938 10.8773438,12.6276077 10.8773438,12.4042969 C10.8773438,12.180986 10.6963577,12 10.4730469,12 Z" id="Path"></path>
                        <path d="M7.34666,5.62 C7.25458,5.54666 7.12062,5.56166 7.04666,5.65334 L6.41784,6.43938 L5.44544,5.07806 C5.8533,4.92808 6.14666,4.53924 6.14666,4.08002 C6.14666,3.4919 5.66812,3.01336 5.08,3.01336 L4.22666,3.01336 C4.10874,3.01336 4.01332,3.10878 4.01332,3.2267 L4.01332,6.21336 C4.01332,6.33128 4.10874,6.4267 4.22666,6.4267 C4.34458,6.4267 4.44,6.33128 4.44,6.21336 L4.44,5.1467 L4.97028,5.1467 L6.1409,6.78556 L5.34,7.78666 C5.26646,7.87874 5.28146,8.01292 5.37334,8.08666 C5.41272,8.11812 5.4598,8.13332 5.50646,8.13332 C5.56916,8.13332 5.63104,8.10582 5.67334,8.05332 L6.39878,7.14652 L7.0398,8.04394 C7.08146,8.10228 7.14688,8.13332 7.21356,8.13332 C7.25648,8.13332 7.29982,8.1204 7.33732,8.09352 C7.43316,8.02518 7.45544,7.89186 7.3869,7.79602 L6.67572,6.80036 L7.38,5.92 C7.45354,5.82792 7.43854,5.69376 7.34666,5.62 Z M4.44,4.72 L4.44,3.44 L5.08,3.44 C5.43292,3.44 5.72,3.72708 5.72,4.08 C5.72,4.43292 5.43292,4.72 5.08,4.72 L4.44,4.72 Z" id="Shape" stroke="#585858" stroke-width="0.25"></path>
                    </g>
                </g>
            </g>
        </g>
    </g>
</svg>